<svg width="185" height="185" viewBox="0 0 185 185" fill="none" xmlns="http://www.w3.org/2000/svg">
<path d="M71.53 71.8559C69.9716 70.1501 67.7527 69.151 65.4428 69.1153C60.7965 69.0557 56.9527 72.76 56.8739 77.4026C56.8486 78.8992 58.0414 80.1328 59.5376 80.1581C59.5535 80.1585 59.5687 80.1585 59.5846 80.1585C61.0599 80.1585 62.2682 78.9751 62.2931 77.494C62.3209 75.8359 63.6838 74.5055 65.3579 74.5344C66.1936 74.5474 66.9643 74.8943 67.5284 75.5115C68.5379 76.6167 70.2524 76.6941 71.357 75.6845C72.4619 74.6753 72.5396 72.9609 71.53 71.8559Z" fill="#91C788"/>
<path d="M85.9476 80.6879C85.1169 78.7353 83.5 77.1942 81.5102 76.4596C77.5088 74.9836 73.0482 77.0349 71.5657 81.0315C71.045 82.4349 71.7608 83.9944 73.1639 84.515C73.4746 84.6303 73.7929 84.6848 74.1058 84.6848C75.2068 84.6848 76.2417 84.0092 76.6471 82.9165C77.0922 81.7162 78.4338 81.1019 79.6334 81.5446C80.2365 81.7671 80.7077 82.2163 80.9595 82.8088C81.5452 84.1859 83.1372 84.8283 84.5139 84.2422C85.8916 83.6565 86.533 82.0652 85.9476 80.6879Z" fill="#91C788"/>
<path d="M103.414 56.6867C102.355 55.6291 100.639 55.6313 99.5817 56.6907L97.0271 59.2503C95.9699 60.3097 95.9717 62.0257 97.0311 63.0825C97.5597 63.6104 98.2524 63.8742 98.9451 63.8742C99.6395 63.8742 100.334 63.609 100.863 63.0786L103.418 60.5189C104.475 59.4595 104.473 57.7436 103.414 56.6867Z" fill="#91C788"/>
<path d="M86.5539 91.6718H82.9421C81.4451 91.6718 80.2322 92.8852 80.2322 94.3818C80.2322 95.8784 81.4451 97.0917 82.9421 97.0917H86.5539C88.0509 97.0917 89.2639 95.8784 89.2639 94.3818C89.2639 92.8852 88.0509 91.6718 86.5539 91.6718Z" fill="#91C788"/>
<path d="M114.247 91.6718H110.635C109.138 91.6718 107.925 92.8852 107.925 94.3818C107.925 95.8784 109.139 97.0917 110.635 97.0917H114.247C115.744 97.0917 116.957 95.8784 116.957 94.3818C116.957 92.8852 115.744 91.6718 114.247 91.6718Z" fill="#91C788"/>
<path d="M184.913 140.535L184.207 136.726C183.757 134.292 181.632 132.526 179.154 132.526C178.843 132.526 178.529 132.554 178.22 132.611L163.854 135.25L170.36 130.901C172.065 129.761 172.927 127.722 172.555 125.7C172.452 125.146 172.258 124.615 171.978 124.117L170.009 120.631C169.334 119.433 168.184 118.543 166.856 118.19C166.206 118.017 165.526 117.978 164.862 118.065C165.587 114.066 165.96 109.982 165.96 105.825C165.96 103.981 164.851 102.393 163.267 101.689C165.337 96.7644 165.478 91.1269 163.432 85.9643C163.266 85.5444 163.019 85.1697 162.7 84.8503C162.384 84.5338 162.013 84.2892 161.593 84.1205C159.141 83.1438 156.564 82.6488 153.933 82.6488C153.596 82.6488 153.261 82.6574 152.928 82.6733C152.552 75.1097 146.292 69.0716 138.65 69.0716C137.644 69.0716 136.662 69.1785 135.715 69.378C136.373 65.4395 135.985 61.3193 134.451 57.4509C134.287 57.0257 134.039 56.6441 133.703 56.3023C133.379 55.9785 132.999 55.7289 132.578 55.5616C129.936 54.5094 127.16 53.9761 124.326 53.9761C120.056 53.9761 115.972 55.1764 112.446 57.4079C111.158 53.6765 109.034 50.1735 106.066 47.1987C105.197 46.3279 104.04 45.848 102.81 45.848C101.58 45.848 100.424 46.3279 99.5531 47.1994L86.4322 60.3502C84.0041 58.1844 80.8089 56.8898 77.3409 56.8898C76.5539 56.8898 75.7594 56.9588 74.9792 57.0947C72.1526 57.5868 69.5514 58.9703 67.5572 60.9966C65.0001 59.7627 62.0709 59.3418 59.2558 59.8317C58.6364 59.9394 58.0356 60.0911 57.4524 60.2761V50.1424C57.4524 43.1637 51.8435 37.4761 44.9053 37.3561V31.6089C47.0292 31.2414 48.6508 29.3903 48.6508 27.1631V14.1412C48.6508 11.651 46.6249 9.62466 44.1342 9.62466H22.0966C19.6059 9.62466 17.58 11.651 17.58 14.1412V27.1631C17.58 29.3903 19.2016 31.2414 21.3255 31.6089V37.3554C14.3873 37.475 8.77879 43.1626 8.77879 50.1417V129.235C3.36829 134.121 0 140.939 0 148.478C0 163.309 13.0168 175.375 29.0171 175.375L137.483 175.343C141.185 175.342 144.667 173.715 147.035 170.88C149.341 168.12 150.322 164.535 149.757 161L171.421 164.894C171.721 164.947 172.028 164.975 172.333 164.975C173.413 164.975 174.448 164.643 175.325 164.017C176.452 163.212 177.214 161.965 177.418 160.598L178.005 156.661C178.089 156.097 178.08 155.529 177.977 154.972C177.604 152.959 176.071 151.362 174.071 150.903L166.435 149.152L180.787 146.515C182.141 146.266 183.315 145.507 184.094 144.375C184.872 143.247 185.162 141.883 184.913 140.535ZM153.933 88.0679C155.564 88.0679 157.168 88.3263 158.71 88.8354C160.088 93.0318 159.572 97.5582 157.414 101.297H150.114L152.444 98.9623C153.501 97.9029 153.499 96.187 152.439 95.1297C151.379 94.0725 149.663 94.0743 148.607 95.134L147.374 96.3694C146.797 94.467 145.788 92.7637 144.462 91.3665C147.151 89.2307 150.453 88.0679 153.933 88.0679ZM138.65 74.4907C143.544 74.4907 147.526 78.4841 147.526 83.3927C147.526 83.4838 147.521 83.5738 147.519 83.6641C144.662 84.5931 142.029 86.145 139.784 88.2526C139.426 88.1171 139.064 87.9913 138.692 87.8884C137.899 83.6059 135.013 80.1733 131.201 78.5701C132.783 76.1189 135.528 74.4907 138.65 74.4907ZM124.325 59.3952C126.166 59.3952 127.975 59.693 129.718 60.2819C131.119 64.4473 130.832 68.9216 129.047 72.7972C127.58 74.1337 126.39 75.7706 125.576 77.6104C125.092 77.6386 124.608 77.6921 124.13 77.7752C122.007 78.1448 120.027 79.0662 118.37 80.4024C117.804 79.369 117.112 78.4155 116.32 77.557L122.534 71.3284C123.591 70.269 123.589 68.5531 122.529 67.4962C121.47 66.4389 119.754 66.4407 118.697 67.5005L111.905 74.3083C110.612 73.6973 109.215 73.2723 107.747 73.0736C108.381 69.8397 109.951 66.7927 112.378 64.3595C115.572 61.1581 119.815 59.3952 124.325 59.3952ZM103.56 101.297H101.211C100.815 100.291 99.8371 99.5769 98.6899 99.5769C97.5426 99.5769 96.5645 100.291 96.1689 101.297H93.4054C94.0472 100.252 93.9174 98.8676 93.0116 97.9636C91.9522 96.9064 90.2363 96.9082 89.179 97.9676L86.6248 100.527C86.3954 100.757 86.219 101.019 86.0893 101.297H80.5737C78.508 98.1273 77.2473 94.3857 77.0981 90.3606H120.091C119.942 94.3857 118.681 98.1273 116.615 101.297H110.876C110.746 101.019 110.569 100.757 110.34 100.527L107.786 97.9672C106.729 96.9082 105.013 96.9053 103.954 97.9629C103.047 98.8669 102.918 100.252 103.56 101.297ZM97.2572 84.9407C98.2787 81.155 101.732 78.3616 105.824 78.3616C109.917 78.3616 113.37 81.1554 114.392 84.9407H97.2572ZM102.799 51.6188C105.377 54.4046 107.081 57.7122 107.917 61.1889C106.533 62.6923 105.384 64.3537 104.477 66.1217C104.066 65.8695 103.583 65.7217 103.066 65.7217H99.4544C97.9578 65.7217 96.7445 66.935 96.7445 68.4317C96.7445 69.9283 97.9578 71.1416 99.4544 71.1416H102.622C102.444 71.8899 102.306 72.6473 102.205 73.4104C101.129 73.6929 100.102 74.0954 99.1397 74.6078C97.3334 71.4906 94.3424 69.1677 90.7985 68.2358C90.7974 68.2282 90.796 68.2206 90.7945 68.2131C90.5821 66.9867 90.2113 65.8232 89.7058 64.7418L102.799 51.6188ZM53.8109 76.0719C53.6519 75.6275 53.5316 75.1715 53.4525 74.714C52.6753 70.2332 55.696 65.9522 60.1847 65.1707C60.6581 65.0883 61.139 65.0464 61.6138 65.0464C63.3991 65.0464 65.1053 65.6158 66.5473 66.6929C67.1439 67.1388 67.8983 67.3191 68.6325 67.1919C69.3668 67.0644 70.0161 66.6406 70.428 66.0194C71.7002 64.1004 73.6467 62.8271 75.9086 62.4333C76.383 62.3505 76.865 62.309 77.3409 62.309C81.3559 62.309 84.7683 65.1815 85.4541 69.1399C85.5329 69.5933 85.5733 70.0659 85.5741 70.5447C85.5766 71.9474 86.6494 73.1166 88.047 73.2395C91.0767 73.5058 93.6559 75.4125 94.8515 78.0986C93.2508 80.0198 92.1412 82.3655 91.7199 84.9407H76.2652C74.3437 84.9407 72.6949 86.1269 72.0073 87.8056C68.6072 85.4899 64.6001 84.2422 60.4008 84.2422C57.77 84.2422 55.1926 84.7376 52.7385 85.7146C52.3223 85.8808 51.9501 86.1262 51.6328 86.4434C51.3113 86.765 51.0645 87.1419 50.9026 87.5552C50.279 89.1281 49.8631 90.745 49.6383 92.3721C48.6671 91.2664 47.9827 89.8916 47.7153 88.3487C47.078 84.6718 49.0028 81.0109 52.3945 79.4456C53.6693 78.8574 54.2839 77.3933 53.8109 76.0719ZM61.8895 100.556L62.6287 101.297H56.1202C54.659 97.9072 54.4371 94.0486 55.6233 90.4296C57.1677 89.9197 58.7709 89.6618 60.4008 89.6618C64.4842 89.6618 68.3254 91.2577 71.2164 94.1552C71.6008 94.5407 71.9589 94.9447 72.2953 95.362C72.7546 97.4411 73.4602 99.4273 74.3693 101.297H70.2853L65.7264 96.7275C64.6688 95.6684 62.9529 95.6656 61.8942 96.7232C60.8344 97.7808 60.8322 99.4967 61.8895 100.556ZM50.3487 101.297H40.6879C41.1186 98.6721 42.6976 96.4345 44.8894 95.1149C46.1869 96.8532 47.8805 98.2588 49.8316 99.2109C49.9697 99.914 50.1391 100.611 50.3487 101.297ZM22.9999 15.0446H43.2309V26.2598H22.9999V15.0446ZM39.4854 31.6797V37.35H26.7458V31.6797H39.4854ZM14.1991 61.1318H31.7967C33.2937 61.1318 34.5067 59.9184 34.5067 58.4218C34.5067 56.9252 33.2937 55.7119 31.7967 55.7119H14.1991V50.1417C14.1991 46.0767 17.4958 42.7699 21.5481 42.7699H44.6831C48.7357 42.7699 52.0325 46.0767 52.0325 50.1417V55.7119H46.9725C45.4755 55.7119 44.2625 56.9252 44.2625 58.4218C44.2625 59.9184 45.4755 61.1318 46.9725 61.1318H52.0325V63.5371C48.9276 66.5813 47.315 71.0455 48.1114 75.6376C48.1128 75.6466 48.1146 75.656 48.1161 75.6654C43.7686 78.6482 41.4521 83.951 42.3746 89.2744C42.4284 89.5852 42.496 89.8908 42.5697 90.1933C41.2158 90.9398 39.9999 91.9038 38.9579 93.0318H14.1991V61.1318ZM14.1987 98.4514H35.8111C35.5235 99.3648 35.3204 100.315 35.2214 101.297H34.7647C32.2704 101.297 30.2409 103.328 30.2409 105.825C30.2409 110.128 30.6409 114.352 31.4159 118.485C30.6372 118.422 29.8387 118.389 29.0265 118.389C25.7492 118.389 22.6266 118.909 20.235 119.853C16.5766 121.298 15.5652 123.349 15.3445 124.768C14.9568 124.961 14.5759 125.165 14.1987 125.373V98.4514ZM48.5142 131.742C49.4902 132.523 50.0867 133.187 50.4325 133.666C50.4 133.666 50.366 133.666 50.3317 133.666C48.7979 133.666 46.042 133.048 42.9083 131.313C41.7415 130.667 40.6666 129.937 39.7994 129.202C38.7884 128.345 37.3059 128.346 36.2956 129.202C35.4284 129.938 34.3538 130.668 33.1882 131.313C30.0537 133.048 27.2979 133.666 25.7644 133.666C25.7293 133.666 25.6957 133.666 25.6629 133.666C26.0083 133.187 26.6048 132.523 27.5811 131.741C28.4342 131.059 28.7938 129.93 28.4928 128.879C28.1914 127.829 27.2888 127.062 26.203 126.934C23.5585 126.624 21.8863 125.951 21.1033 125.461C22.0843 124.85 24.5644 123.809 29.0275 123.809C32.7239 123.809 35.4255 124.586 36.7213 125.313C37.5454 125.776 38.5503 125.776 39.3745 125.314C40.6709 124.586 43.3729 123.809 47.0693 123.809C51.5328 123.809 54.0125 124.851 54.9932 125.462C54.2106 125.952 52.538 126.625 49.8927 126.935C48.8069 127.062 47.904 127.829 47.603 128.88C47.3009 129.931 47.6604 131.06 48.5142 131.742ZM43.0933 164.726L43.1865 165.229C43.5088 166.969 44.1884 168.566 45.138 169.955H29.0171C16.0057 169.955 5.4199 160.321 5.4199 148.478C5.4199 140.385 10.3657 133.326 17.6486 129.666C18.4851 130.29 19.5279 130.828 20.7651 131.263C20.2744 132.101 19.9326 133.002 19.852 133.942C19.7451 135.191 20.1273 136.378 20.9295 137.283C21.9893 138.48 23.6159 139.087 25.7644 139.087C28.6275 139.087 32.3843 137.953 35.8132 136.055C36.6027 135.618 37.3492 135.156 38.0481 134.674C38.7465 135.156 39.493 135.617 40.2829 136.055C43.7118 137.953 47.4686 139.086 50.3317 139.087H50.3321C52.4798 139.087 54.1065 138.48 55.1659 137.284C55.9684 136.378 56.3511 135.191 56.2437 133.942C56.1632 133.002 55.8214 132.101 55.3307 131.263C56.5678 130.828 57.611 130.29 58.4475 129.666C64.2233 132.569 68.527 137.609 70.0616 143.609L50.895 150.89C45.2847 153.021 42.0035 158.84 43.0933 164.726ZM142.875 167.405C141.539 169.005 139.572 169.923 137.48 169.924L134.636 169.925L132.859 160.33C132.586 158.858 131.173 157.885 129.7 158.158C128.229 158.431 127.257 159.845 127.529 161.316L129.124 169.926L119.8 169.93L118.598 163.442C118.325 161.97 116.912 160.998 115.44 161.271C113.969 161.543 112.996 162.957 113.269 164.429L114.288 169.932L92.599 169.941L90.9665 161.129C90.6933 159.657 89.2806 158.685 87.8082 158.958C86.3365 159.23 85.3645 160.644 85.6369 162.116L87.0869 169.943L55.4188 169.955C55.4181 169.955 55.4174 169.955 55.4167 169.955C52.0303 169.955 49.1281 167.552 48.5146 164.24L48.4214 163.738C47.8089 160.43 49.6582 157.157 52.8187 155.956L63.4695 151.91L64.263 156.192C64.5047 157.497 65.6437 158.409 66.9242 158.409C67.0882 158.409 67.2544 158.394 67.4214 158.363C68.8927 158.09 69.8647 156.677 69.5919 155.205L68.6188 149.954L84.4287 143.948C85.8277 143.416 86.5312 141.851 85.9997 140.452C85.4682 139.053 83.9011 138.349 82.5042 138.881L75.1473 141.676C73.0834 134.369 67.7813 128.265 60.7502 124.768C60.5294 123.349 59.5181 121.297 55.86 119.853C53.4684 118.908 50.3458 118.388 47.0686 118.388C44.8132 118.388 42.6593 118.637 40.758 119.091V117.454C40.758 115.957 39.545 114.744 38.0481 114.744C37.4154 114.744 36.8351 114.962 36.3737 115.326C35.9462 112.499 35.707 109.628 35.6673 106.716H123.935C125.432 106.716 126.645 105.503 126.645 104.006C126.645 102.51 125.432 101.296 123.935 101.296H122.826C124.552 97.7425 125.527 93.7578 125.527 89.5465C125.527 87.1556 123.697 85.186 121.366 84.9623C122.381 84.0052 123.648 83.3599 125.06 83.1138C125.474 83.0419 125.893 83.0054 126.308 83.0054C129.807 83.0054 132.78 85.5083 133.377 88.9561C133.446 89.3553 133.482 89.7673 133.482 90.181C133.484 91.5844 134.557 92.7544 135.955 92.8772C139.193 93.1616 141.843 95.5973 142.398 98.8001C142.546 99.6517 142.527 100.492 142.38 101.296H139.472C137.975 101.296 136.762 102.51 136.762 104.006C136.762 105.503 137.975 106.716 139.472 106.716H160.535C160.467 111.688 159.827 116.543 158.633 121.255L143.946 129.924C143.048 126.798 140.96 124.146 138.084 122.536C134.858 120.731 131.024 120.449 127.566 121.762L97.3186 133.253C95.9192 133.784 95.2161 135.35 95.7476 136.749C96.2791 138.148 97.8458 138.851 99.243 138.32L103.228 136.806L104.465 143.486C104.707 144.791 105.846 145.703 107.126 145.703C107.29 145.703 107.456 145.688 107.623 145.657C109.095 145.385 110.067 143.971 109.795 142.499L108.378 134.85L129.49 126.83C131.446 126.087 133.613 126.246 135.437 127.267C137.257 128.285 138.518 130.041 138.897 132.084L144.379 161.682C144.757 163.723 144.209 165.809 142.875 167.405ZM152.544 146.193C151.28 146.425 150.353 147.514 150.325 148.799C150.296 150.084 151.175 151.212 152.428 151.5L172.604 156.127L172.1 159.509L148.71 155.306L145.054 135.565L165.427 123.539L167.124 126.544L149.94 138.031C148.872 138.745 148.452 140.112 148.935 141.303C149.418 142.493 150.672 143.181 151.936 142.949L178.929 137.991L179.531 141.235L152.544 146.193Z" fill="#91C788"/>
</svg>
