<svg width="20" height="20" viewBox="0 0 20 20" fill="none" xmlns="http://www.w3.org/2000/svg">
<path d="M15.3571 16.3095H14.2701C15.5072 15.5719 16.5319 14.5261 17.244 13.2741C17.9562 12.0222 18.3315 10.607 18.3333 9.16668C18.3333 9.00881 18.2706 8.85741 18.159 8.74578C18.0473 8.63415 17.8959 8.57144 17.7381 8.57144H2.26186C2.104 8.57144 1.9526 8.63415 1.84097 8.74578C1.72934 8.85741 1.66663 9.00881 1.66663 9.16668C1.66844 10.607 2.04375 12.0222 2.7559 13.2741C3.46805 14.5261 4.4927 15.5719 5.72978 16.3095H4.64282C4.48495 16.3095 4.33355 16.3723 4.22192 16.4839C4.11029 16.5955 4.04758 16.7469 4.04758 16.9048C4.04758 17.0626 4.11029 17.214 4.22192 17.3257C4.33355 17.4373 4.48495 17.5 4.64282 17.5H15.3571C15.515 17.5 15.6664 17.4373 15.778 17.3257C15.8896 17.214 15.9523 17.0626 15.9523 16.9048C15.9523 16.7469 15.8896 16.5955 15.778 16.4839C15.6664 16.3723 15.515 16.3095 15.3571 16.3095Z" fill="#91C788"/>
<path d="M7.37861 7.85876C7.50532 7.76462 7.58944 7.62402 7.6125 7.46787C7.63555 7.31172 7.59563 7.1528 7.50153 7.02608C7.17307 6.65206 7.00051 6.16634 7.01938 5.66893C7.08914 5.33103 7.25343 5.01989 7.49313 4.77173C7.86927 4.35603 8.11805 3.84102 8.20986 3.28798C8.27346 2.48553 8.01905 1.69024 7.50153 1.07369C7.40646 0.949573 7.26638 0.867839 7.11154 0.84615C6.95671 0.824462 6.79956 0.864561 6.67405 0.957784C6.54854 1.05101 6.46475 1.18987 6.44077 1.34436C6.4168 1.49886 6.45457 1.65658 6.54593 1.78346C6.87441 2.15746 7.04697 2.64318 7.02807 3.1406C6.95828 3.47908 6.79378 3.79078 6.55373 4.03941C6.17788 4.4546 5.9293 4.96907 5.8376 5.52155C5.774 6.324 6.02841 7.11929 6.54593 7.73584C6.64006 7.86254 6.78066 7.94667 6.93682 7.96972C7.09297 7.99277 7.25188 7.95286 7.37861 7.85876Z" fill="#91C788"/>
<path d="M10.3685 7.85874C10.4952 7.76462 10.5794 7.62402 10.6024 7.46787C10.6255 7.31172 10.5856 7.1528 10.4915 7.02606C10.1629 6.65209 9.99022 6.16638 10.009 5.66892C10.0787 5.33102 10.243 5.01988 10.4827 4.77172C10.8589 4.35604 11.1077 3.84101 11.1995 3.28797C11.2633 2.48556 11.009 1.69024 10.4915 1.07368C10.3974 0.946936 10.2568 0.862773 10.1006 0.839704C9.9444 0.816636 9.78546 0.856553 9.65872 0.950673C9.53197 1.04479 9.44781 1.18541 9.42474 1.34158C9.40168 1.49776 9.44159 1.6567 9.53571 1.78344C9.86439 2.15735 10.0371 2.64311 10.0182 3.14059C9.94839 3.47906 9.7839 3.79075 9.54387 4.0394C9.16802 4.45458 8.91944 4.96906 8.82774 5.52154C8.76406 6.32394 9.01833 7.11921 9.53571 7.73583C9.58232 7.79858 9.64084 7.85154 9.70791 7.89168C9.77499 7.93182 9.84932 7.95836 9.92665 7.96977C10.004 7.98118 10.0828 7.97725 10.1586 7.9582C10.2344 7.93915 10.3058 7.90536 10.3685 7.85874Z" fill="#91C788"/>
<path d="M13.331 7.85876C13.4577 7.76462 13.5418 7.62402 13.5649 7.46787C13.5879 7.31172 13.548 7.1528 13.4539 7.02608C13.1253 6.65211 12.9527 6.16638 12.9715 5.66893C13.0412 5.33103 13.2055 5.01989 13.4452 4.77173C13.8213 4.35603 14.0701 3.84102 14.1619 3.28798C14.2256 2.48557 13.9713 1.69029 13.4539 1.07369C13.3588 0.949573 13.2187 0.867839 13.0639 0.84615C12.9091 0.824462 12.7519 0.864561 12.6264 0.957784C12.5009 1.05101 12.4171 1.18987 12.3931 1.34436C12.3692 1.49886 12.4069 1.65658 12.4983 1.78346C12.8269 2.15741 12.9996 2.64314 12.9807 3.1406C12.9109 3.47908 12.7464 3.79078 12.5064 4.03941C12.1305 4.4546 11.882 4.96907 11.7903 5.52155C11.7266 6.32396 11.9809 7.11924 12.4983 7.73584C12.5924 7.86254 12.733 7.94667 12.8892 7.96972C13.0453 7.99277 13.2042 7.95286 13.331 7.85876Z" fill="#91C788"/>
</svg>
